<svg width="24" height="14" viewBox="0 0 24 14" fill="none" xmlns="http://www.w3.org/2000/svg">
<path d="M10.4028 5.83331H9.67361C9.59259 5.83331 9.47106 5.83331 9.30903 5.83331C9.14699 5.83331 8.94444 5.83331 8.70139 5.83331H12.3472H10.4028ZM4.86111 13.6111C3.5162 13.6111 2.36979 13.1371 1.42188 12.1892C0.473958 11.2413 0 10.0949 0 8.74997C0 7.40507 0.473958 6.25865 1.42188 5.31074C2.36979 4.36282 3.5162 3.88886 4.86111 3.88886H16.1389L14.1944 1.94442H10.6944V-2.76566e-05H14.1701C14.4294 -2.76566e-05 14.6765 0.048584 14.9115 0.145806C15.1464 0.243029 15.353 0.380759 15.5312 0.559L18.9097 3.93747C20.1736 4.03469 21.2269 4.54511 22.0694 5.46872C22.912 6.39233 23.3333 7.48608 23.3333 8.74997C23.3333 10.0949 22.8594 11.2413 21.9115 12.1892C20.9635 13.1371 19.8171 13.6111 18.4722 13.6111C17.1273 13.6111 15.9809 13.1371 15.033 12.1892C14.0851 11.2413 13.6111 10.0949 13.6111 8.74997C13.6111 8.45831 13.6314 8.17069 13.6719 7.88713C13.7124 7.60356 13.7894 7.32405 13.9028 7.04858L11.2292 9.7222H9.625C9.39815 10.8565 8.83912 11.7882 7.94792 12.5173C7.05671 13.2465 6.02778 13.6111 4.86111 13.6111ZM18.4722 11.6666C19.2824 11.6666 19.9711 11.3831 20.5382 10.8159C21.1053 10.2488 21.3889 9.56016 21.3889 8.74997C21.3889 7.93979 21.1053 7.25113 20.5382 6.684C19.9711 6.11687 19.2824 5.83331 18.4722 5.83331C17.662 5.83331 16.9734 6.11687 16.4062 6.684C15.8391 7.25113 15.5556 7.93979 15.5556 8.74997C15.5556 9.56016 15.8391 10.2488 16.4062 10.8159C16.9734 11.3831 17.662 11.6666 18.4722 11.6666ZM4.86111 11.6666C5.47685 11.6666 6.03183 11.4884 6.52604 11.1319C7.02025 10.7754 7.37269 10.3055 7.58333 9.7222H4.86111V7.77775H7.58333C7.37269 7.19442 7.02025 6.72451 6.52604 6.36803C6.03183 6.01155 5.47685 5.83331 4.86111 5.83331C4.05093 5.83331 3.36227 6.11687 2.79514 6.684C2.22801 7.25113 1.94444 7.93979 1.94444 8.74997C1.94444 9.56016 2.22801 10.2488 2.79514 10.8159C3.36227 11.3831 4.05093 11.6666 4.86111 11.6666ZM9.67361 7.77775H10.4028L12.3472 5.83331H8.70139C8.94444 6.10877 9.14699 6.40854 9.30903 6.73261C9.47106 7.05669 9.59259 7.40507 9.67361 7.77775Z" fill="#0D121B"/>
</svg>
