<svg width="30" height="18" viewBox="0 0 30 18" fill="none" xmlns="http://www.w3.org/2000/svg">
<path d="M5 17.5C3.625 17.5 2.44792 17.0104 1.46875 16.0312C0.489583 15.0521 0 13.875 0 12.5C0 11.3125 0.380208 10.2604 1.14062 9.34375C1.90104 8.42708 2.875 7.85417 4.0625 7.625L3.1875 6.875H0V5H5.625L8.75 6.875L13.75 5H17.6875L15.75 2.5H12.5V0H16.9375L19.5625 3.375L23.75 1.25V5H20.875L23.0625 7.875C23.375 7.75 23.6927 7.65625 24.0156 7.59375C24.3385 7.53125 24.6667 7.5 25 7.5C26.375 7.5 27.5521 7.98958 28.5312 8.96875C29.5104 9.94792 30 11.125 30 12.5C30 13.875 29.5104 15.0521 28.5312 16.0312C27.5521 17.0104 26.375 17.5 25 17.5C23.625 17.5 22.4479 17.0104 21.4688 16.0312C20.4896 15.0521 20 13.875 20 12.5C20 11.9375 20.099 11.3906 20.2969 10.8594C20.4948 10.3281 20.7708 9.83333 21.125 9.375L20.5 8.625L16.25 15H12.5L10 12.8125C9.89583 14.125 9.36458 15.2344 8.40625 16.1406C7.44792 17.0469 6.3125 17.5 5 17.5ZM5 15C5.6875 15 6.27604 14.7552 6.76562 14.2656C7.25521 13.776 7.5 13.1875 7.5 12.5C7.5 11.8125 7.25521 11.224 6.76562 10.7344C6.27604 10.2448 5.6875 10 5 10C4.3125 10 3.72396 10.2448 3.23438 10.7344C2.74479 11.224 2.5 11.8125 2.5 12.5C2.5 13.1875 2.74479 13.776 3.23438 14.2656C3.72396 14.7552 4.3125 15 5 15ZM25 15C25.6875 15 26.276 14.7552 26.7656 14.2656C27.2552 13.776 27.5 13.1875 27.5 12.5C27.5 11.8125 27.2552 11.224 26.7656 10.7344C26.276 10.2448 25.6875 10 25 10C24.3125 10 23.724 10.2448 23.2344 10.7344C22.7448 11.224 22.5 11.8125 22.5 12.5C22.5 13.1875 22.7448 13.776 23.2344 14.2656C23.724 14.7552 24.3125 15 25 15ZM14.9375 12.5L18.25 7.5H14.1875L9.6875 9.1875L13.4375 12.5H14.9375Z" fill="#1F2937"/>
</svg>
