<svg width="20" height="19" viewBox="0 0 20 19" fill="none" xmlns="http://www.w3.org/2000/svg">
<path d="M1.94444 18.4722C1.40972 18.4722 0.951968 18.2818 0.571181 17.901C0.190394 17.5203 0 17.0625 0 16.5278V5.83334C0 5.29862 0.190394 4.84086 0.571181 4.46008C0.951968 4.07929 1.40972 3.88889 1.94444 3.88889H5.83333V1.94445C5.83333 1.40973 6.02373 0.951973 6.40451 0.571186C6.7853 0.190399 7.24306 5.72205e-06 7.77778 5.72205e-06H11.6667C12.2014 5.72205e-06 12.6591 0.190399 13.0399 0.571186C13.4207 0.951973 13.6111 1.40973 13.6111 1.94445V3.88889H17.5C18.0347 3.88889 18.4925 4.07929 18.8733 4.46008C19.2541 4.84086 19.4444 5.29862 19.4444 5.83334V16.5278C19.4444 17.0625 19.2541 17.5203 18.8733 17.901C18.4925 18.2818 18.0347 18.4722 17.5 18.4722H1.94444ZM7.77778 3.88889H11.6667V1.94445H7.77778V3.88889ZM17.5 12.6389H12.6389V14.5833H6.80556V12.6389H1.94444V16.5278H17.5V12.6389ZM8.75 12.6389H10.6944V10.6945H8.75V12.6389ZM1.94444 10.6945H6.80556V8.75001H12.6389V10.6945H17.5V5.83334H1.94444V10.6945Z" fill="#0D121B"/>
</svg>
