<svg width="19" height="18" viewBox="0 0 19 18" fill="none" xmlns="http://www.w3.org/2000/svg">
<path d="M15.9444 17.5243L10.6215 12.2014L12.6632 10.1597L17.9861 15.4826L15.9444 17.5243ZM2.52778 17.5243L0.486111 15.4826L7.19444 8.77429L5.54167 7.12151L4.86111 7.80207L3.62153 6.56249V8.55554L2.94097 9.2361L0 6.29513L0.680556 5.61457H2.67361L1.45833 4.39929L4.90972 0.947903C5.2338 0.623829 5.58218 0.388876 5.95486 0.243042C6.32755 0.097208 6.70833 0.024292 7.09722 0.024292C7.48611 0.024292 7.8669 0.097208 8.23958 0.243042C8.61227 0.388876 8.96065 0.623829 9.28472 0.947903L7.04861 3.18401L8.26389 4.39929L7.58333 5.07985L9.23611 6.73263L11.4236 4.54513C11.3588 4.36688 11.3061 4.18054 11.2656 3.9861C11.2251 3.79165 11.2049 3.59721 11.2049 3.40276C11.2049 2.44675 11.533 1.64061 12.1892 0.984362C12.8455 0.328112 13.6516 -1.33514e-05 14.6076 -1.33514e-05C14.8507 -1.33514e-05 15.0816 0.024292 15.3003 0.0729027C15.5191 0.121513 15.7419 0.194431 15.9687 0.291653L13.5625 2.6979L15.3125 4.4479L17.7187 2.04165C17.8322 2.26851 17.9091 2.49131 17.9497 2.71006C17.9902 2.92881 18.0104 3.15971 18.0104 3.40276C18.0104 4.35878 17.6823 5.16492 17.026 5.82117C16.3698 6.47742 15.5637 6.80554 14.6076 6.80554C14.4132 6.80554 14.2187 6.78934 14.0243 6.75693C13.8299 6.72452 13.6435 6.66781 13.4653 6.58679L2.52778 17.5243Z" fill="#0D121B"/>
</svg>
