<svg width="20" height="18" viewBox="0 0 20 18" fill="none" xmlns="http://www.w3.org/2000/svg">
<path d="M18.5179 7.82639V15.5556C18.5179 16.0903 18.3275 16.548 17.9467 16.9288C17.5659 17.3096 17.1081 17.5 16.5734 17.5H2.9623C2.42758 17.5 1.96982 17.3096 1.58904 16.9288C1.20825 16.548 1.01786 16.0903 1.01786 15.5556V7.82639C0.645172 7.48611 0.357556 7.04861 0.15501 6.51389C-0.0475364 5.97917 -0.0515873 5.39583 0.142857 4.76389L1.16369 1.45833C1.29332 1.03704 1.52422 0.688658 1.8564 0.413195C2.18857 0.137732 2.57341 0 3.01091 0H16.5248C16.9623 0 17.3431 0.13368 17.6672 0.401041C17.9912 0.668402 18.2262 1.02083 18.372 1.45833L19.3929 4.76389C19.5873 5.39583 19.5833 5.97106 19.3807 6.48958C19.1782 7.0081 18.8905 7.4537 18.5179 7.82639ZM11.9067 6.80556C12.3442 6.80556 12.6764 6.65567 12.9033 6.3559C13.1301 6.05613 13.2192 5.71991 13.1706 5.34722L12.6359 1.94444H10.7401V5.54167C10.7401 5.88194 10.8535 6.17766 11.0804 6.42882C11.3072 6.67998 11.5827 6.80556 11.9067 6.80556ZM7.53175 6.80556C7.90443 6.80556 8.20825 6.67998 8.4432 6.42882C8.67816 6.17766 8.79564 5.88194 8.79564 5.54167V1.94444H6.8998L6.36508 5.34722C6.30026 5.73611 6.38533 6.07639 6.62029 6.36806C6.85524 6.65972 7.15906 6.80556 7.53175 6.80556ZM3.20536 6.80556C3.49702 6.80556 3.75223 6.70023 3.97098 6.48958C4.18973 6.27894 4.32341 6.01157 4.37202 5.6875L4.90675 1.94444H3.01091L2.03869 5.20139C1.94147 5.52546 1.99413 5.87384 2.19668 6.24653C2.39922 6.61921 2.73545 6.80556 3.20536 6.80556ZM16.3304 6.80556C16.8003 6.80556 17.1405 6.61921 17.3512 6.24653C17.5618 5.87384 17.6105 5.52546 17.497 5.20139L16.4762 1.94444H14.629L15.1637 5.6875C15.2123 6.01157 15.346 6.27894 15.5647 6.48958C15.7835 6.70023 16.0387 6.80556 16.3304 6.80556ZM2.9623 15.5556H16.5734V8.70139C16.4924 8.7338 16.4397 8.75 16.4154 8.75C16.3911 8.75 16.3628 8.75 16.3304 8.75C15.8929 8.75 15.508 8.67708 15.1758 8.53125C14.8437 8.38542 14.5155 8.15046 14.1915 7.82639C13.8998 8.11806 13.5676 8.34491 13.1949 8.50694C12.8223 8.66898 12.4253 8.75 12.004 8.75C11.5665 8.75 11.1573 8.66898 10.7765 8.50694C10.3958 8.34491 10.0595 8.11806 9.76786 7.82639C9.49239 8.11806 9.17237 8.34491 8.80779 8.50694C8.4432 8.66898 8.05027 8.75 7.62897 8.75C7.15906 8.75 6.73371 8.66898 6.35293 8.50694C5.97214 8.34491 5.63591 8.11806 5.34425 7.82639C5.00397 8.16667 4.66774 8.40567 4.33557 8.5434C4.00339 8.68113 3.62665 8.75 3.20536 8.75C3.17295 8.75 3.13649 8.75 3.09598 8.75C3.05547 8.75 3.01091 8.7338 2.9623 8.70139V15.5556ZM16.5734 15.5556H2.9623C3.01091 15.5556 3.05547 15.5556 3.09598 15.5556C3.13649 15.5556 3.17295 15.5556 3.20536 15.5556C3.62665 15.5556 4.00339 15.5556 4.33557 15.5556C4.66774 15.5556 5.00397 15.5556 5.34425 15.5556C5.49008 15.5556 5.64807 15.5556 5.8182 15.5556C5.98834 15.5556 6.17064 15.5556 6.36508 15.5556C6.55952 15.5556 6.76207 15.5556 6.97272 15.5556C7.18337 15.5556 7.40212 15.5556 7.62897 15.5556C7.83962 15.5556 8.04216 15.5556 8.23661 15.5556C8.43105 15.5556 8.62145 15.5556 8.80779 15.5556C8.99413 15.5556 9.16832 15.5556 9.33036 15.5556C9.49239 15.5556 9.63823 15.5556 9.76786 15.5556C10.0595 15.5556 10.3958 15.5556 10.7765 15.5556C11.1573 15.5556 11.5665 15.5556 12.004 15.5556C12.2146 15.5556 12.4172 15.5556 12.6116 15.5556C12.8061 15.5556 12.9964 15.5556 13.1828 15.5556C13.3691 15.5556 13.5474 15.5556 13.7175 15.5556C13.8876 15.5556 14.0456 15.5556 14.1915 15.5556C14.5155 15.5556 14.8437 15.5556 15.1758 15.5556C15.508 15.5556 15.8929 15.5556 16.3304 15.5556C16.3628 15.5556 16.3911 15.5556 16.4154 15.5556C16.4397 15.5556 16.4924 15.5556 16.5734 15.5556Z" fill="#0D121B"/>
</svg>
